<?xml version="1.0" encoding="UTF-8" standalone="no"?>
<!DOCTYPE svg PUBLIC "-//W3C//DTD SVG 1.1//EN" "http://www.w3.org/Graphics/SVG/1.1/DTD/svg11.dtd">
<svg width="100%" height="100%" viewBox="0 0 1001 1001" version="1.1" xmlns="http://www.w3.org/2000/svg" xmlns:xlink="http://www.w3.org/1999/xlink" xml:space="preserve" xmlns:serif="http://www.serif.com/" style="fill-rule:evenodd;clip-rule:evenodd;stroke-linejoin:round;stroke-miterlimit:2;">
    <g transform="matrix(1,0,0,1,-1202,-1461)">
        <g id="Logo-square-white" serif:id="Logo square white" transform="matrix(0.520833,0,0,0.925926,1202.18,1461.53)">
            <rect x="0" y="0" width="1920" height="1080" style="fill:none;"/>
            <g id="Logo" transform="matrix(1.29477,0,0,1.29477,-283.778,-159.176)">
                <g id="KMP" transform="matrix(1,0,0,1,169.274,78.4868)">
                    <g id="K">
                        <g transform="matrix(0.349219,-0.196436,0.638064,0.358911,-150.258,188.316)">
                            <path d="M367.742,258.915C367.742,226.093 317.975,199.446 256.676,199.446C195.377,199.446 145.61,226.093 145.61,258.915L145.61,687.08C145.61,719.902 195.377,746.549 256.676,746.549C317.975,746.549 367.742,719.902 367.742,687.08L367.742,258.915Z" style="fill:white;"/>
                        </g>
                        <g transform="matrix(-0.349219,-0.196436,-0.638064,0.358911,632.62,341.043)">
                            <path d="M367.742,258.915C367.742,226.093 317.975,199.446 256.676,199.446C195.377,199.446 145.61,226.093 145.61,258.915L145.61,687.08C145.61,719.902 195.377,746.549 256.676,746.549C317.975,746.549 367.742,719.902 367.742,687.08L367.742,258.915Z" style="fill:white;"/>
                        </g>
                    </g>
                    <g id="M">
                        <g transform="matrix(0.468519,3.66963e-17,7.89924e-16,0.67108,405.215,66.7447)">
                            <path d="M367.742,258.915C367.742,226.093 317.975,199.446 256.676,199.446C195.377,199.446 145.61,226.093 145.61,258.915L145.61,687.08C145.61,719.902 195.377,746.549 256.676,746.549C317.975,746.549 367.742,719.902 367.742,687.08L367.742,258.915Z" style="fill:white;"/>
                        </g>
                        <g transform="matrix(0.405749,-0.131771,0.570732,0.556052,292.056,126.608)">
                            <path d="M367.742,258.915C367.742,226.093 317.975,199.446 256.676,199.446C195.377,199.446 145.61,226.093 145.61,258.915L145.61,687.08C145.61,719.902 195.377,746.549 256.676,746.549C317.975,746.549 367.742,719.902 367.742,687.08L367.742,258.915Z" style="fill:white;"/>
                        </g>
                        <g transform="matrix(-0.468519,3.66963e-17,-7.89924e-16,0.67108,1196.17,66.7447)">
                            <path d="M367.742,258.915C367.742,226.093 317.975,199.446 256.676,199.446C195.377,199.446 145.61,226.093 145.61,258.915L145.61,687.08C145.61,719.902 195.377,746.549 256.676,746.549C317.975,746.549 367.742,719.902 367.742,687.08L367.742,258.915Z" style="fill:white;"/>
                        </g>
                        <g transform="matrix(-0.405749,-0.131771,-0.570732,0.556052,1309.32,126.608)">
                            <path d="M367.742,258.915C367.742,226.093 317.975,199.446 256.676,199.446C195.377,199.446 145.61,226.093 145.61,258.915L145.61,687.08C145.61,719.902 195.377,746.549 256.676,746.549C317.975,746.549 367.742,719.902 367.742,687.08L367.742,258.915Z" style="fill:white;"/>
                        </g>
                    </g>
                    <g id="P" transform="matrix(1,0,0,1,0,-5.15156)">
                        <g transform="matrix(-7.59876e-17,-0.250014,-0.891907,-3.90804e-16,1820.02,297.681)">
                            <path d="M367.742,544.437C367.742,511.615 317.975,484.968 256.676,484.968C195.377,484.968 145.61,511.615 145.61,544.437L145.61,687.08C145.61,719.902 195.377,746.549 256.676,746.549C317.975,746.549 367.742,719.902 367.742,687.08L367.742,544.437Z" style="fill:white;"/>
                        </g>
                        <g transform="matrix(-7.59876e-17,-0.250014,-0.891907,-3.90804e-16,1832.15,463.889)">
                            <path d="M367.742,544.437C367.742,511.615 317.975,484.968 256.676,484.968C195.377,484.968 145.61,511.615 145.61,544.437L145.61,622.083C145.61,654.905 195.377,681.552 256.676,681.552C317.975,681.552 367.742,654.905 367.742,622.083L367.742,544.437Z" style="fill:white;"/>
                        </g>
                        <g transform="matrix(-1.4919,0.839194,-1.51282,-0.850963,2906.59,-93.9588)">
                            <path d="M837.246,212.902C819.849,195.505 796.253,185.731 771.649,185.731C720.448,185.731 678.88,227.299 678.88,278.5C678.88,303.104 688.654,326.7 706.051,344.098L738.85,311.299C730.151,302.6 725.264,290.802 725.264,278.5C725.264,252.899 746.048,232.115 771.649,232.115C783.951,232.115 795.749,237.002 804.448,245.701L837.246,212.902Z" style="fill:white;"/>
                        </g>
                    </g>
                </g>
                <g transform="matrix(1.92,0,0,1.08,216.099,-134.446)">
                    <text x="102.401px" y="834.041px" style="font-family:'SpaceGrotesk-Light', 'Space Grotesk';font-weight:300;font-size:161.512px;fill:white;">a<tspan x="192.686px " y="834.041px ">g</tspan>ency</text>
                </g>
            </g>
        </g>
    </g>
</svg>
